<?xml version="1.0" encoding="UTF-8" standalone="no"?><svg xmlns="http://www.w3.org/2000/svg" xmlns:xlink="http://www.w3.org/1999/xlink" contentScriptType="application/ecmascript" contentStyleType="text/css" height="247px" preserveAspectRatio="none" style="width:545px;height:247px;" version="1.1" viewBox="0 0 545 247" width="545px" zoomAndPan="magnify"><defs><filter height="300%" id="f1nlozwkg35j21" width="300%" x="-1" y="-1"><feGaussianBlur result="blurOut" stdDeviation="2.0"/><feColorMatrix in="blurOut" result="blurOut2" type="matrix" values="0 0 0 0 0 0 0 0 0 0 0 0 0 0 0 0 0 0 .4 0"/><feOffset dx="4.0" dy="4.0" in="blurOut2" result="blurOut3"/><feBlend in="SourceGraphic" in2="blurOut3" mode="normal"/></filter></defs><g><!--entity RongConfigCenter--><rect fill="#FEFECE" filter="url(#f1nlozwkg35j21)" height="36.2969" style="stroke: #A80036; stroke-width: 1.5;" width="148" x="173.25" y="8"/><rect fill="#FEFECE" height="5" style="stroke: #A80036; stroke-width: 1.5;" width="10" x="168.25" y="13"/><rect fill="#FEFECE" height="5" style="stroke: #A80036; stroke-width: 1.5;" width="10" x="168.25" y="34.2969"/><text fill="#000000" font-family="sans-serif" font-size="14" lengthAdjust="spacingAndGlyphs" textLength="128" x="183.25" y="30.9951">RongConfigCenter</text><!--entity FeatureConfig--><rect fill="#FEFECE" filter="url(#f1nlozwkg35j21)" height="36.2969" style="stroke: #A80036; stroke-width: 1.5;" width="117" x="6" y="104"/><rect fill="#FEFECE" height="5" style="stroke: #A80036; stroke-width: 1.5;" width="10" x="1" y="109"/><rect fill="#FEFECE" height="5" style="stroke: #A80036; stroke-width: 1.5;" width="10" x="1" y="130.2969"/><text fill="#000000" font-family="sans-serif" font-size="14" lengthAdjust="spacingAndGlyphs" textLength="97" x="16" y="126.9951">FeatureConfig</text><!--entity ConversationListConfig--><rect fill="#FEFECE" filter="url(#f1nlozwkg35j21)" height="36.2969" style="stroke: #A80036; stroke-width: 1.5;" width="178" x="158.75" y="104"/><rect fill="#FEFECE" height="5" style="stroke: #A80036; stroke-width: 1.5;" width="10" x="153.75" y="109"/><rect fill="#FEFECE" height="5" style="stroke: #A80036; stroke-width: 1.5;" width="10" x="153.75" y="130.2969"/><text fill="#000000" font-family="sans-serif" font-size="14" lengthAdjust="spacingAndGlyphs" textLength="158" x="168.75" y="126.9951">ConversationListConfig</text><!--entity ConversationConfig--><rect fill="#FEFECE" filter="url(#f1nlozwkg35j21)" height="36.2969" style="stroke: #A80036; stroke-width: 1.5;" width="155" x="372" y="104"/><rect fill="#FEFECE" height="5" style="stroke: #A80036; stroke-width: 1.5;" width="10" x="367" y="109"/><rect fill="#FEFECE" height="5" style="stroke: #A80036; stroke-width: 1.5;" width="10" x="367" y="130.2969"/><text fill="#000000" font-family="sans-serif" font-size="14" lengthAdjust="spacingAndGlyphs" textLength="135" x="382" y="126.9951">ConversationConfig</text><!--entity RongExtensionConfig--><rect fill="#FEFECE" filter="url(#f1nlozwkg35j21)" height="36.2969" style="stroke: #A80036; stroke-width: 1.5;" width="169" x="365" y="200"/><rect fill="#FEFECE" height="5" style="stroke: #A80036; stroke-width: 1.5;" width="10" x="360" y="205"/><rect fill="#FEFECE" height="5" style="stroke: #A80036; stroke-width: 1.5;" width="10" x="360" y="226.2969"/><text fill="#000000" font-family="sans-serif" font-size="14" lengthAdjust="spacingAndGlyphs" textLength="149" x="375" y="222.9951">RongExtensionConfig</text><!--link RongConfigCenter to FeatureConfig--><path d="M214.11,44.023 C182.597,60.21 135.234,84.538 102.2159,101.498 " fill="none" id="RongConfigCenter-FeatureConfig" style="stroke: #A80036; stroke-width: 1.0;"/><polygon fill="#A80036" points="97.4521,103.945,107.2853,103.3902,101.8995,101.6601,103.6296,96.2743,97.4521,103.945" style="stroke: #A80036; stroke-width: 1.0;"/><!--link RongConfigCenter to ConversationListConfig--><path d="M247.25,44.241 C247.25,59.479 247.25,81.807 247.25,98.458 " fill="none" id="RongConfigCenter-ConversationListConfig" style="stroke: #A80036; stroke-width: 1.0;"/><polygon fill="#A80036" points="247.25,103.868,251.25,94.868,247.25,98.868,243.25,94.868,247.25,103.868" style="stroke: #A80036; stroke-width: 1.0;"/><!--link RongConfigCenter to ConversationConfig--><path d="M283.831,44.023 C318.758,60.276 371.325,84.738 407.79,101.707 " fill="none" id="RongConfigCenter-ConversationConfig" style="stroke: #A80036; stroke-width: 1.0;"/><polygon fill="#A80036" points="412.601,103.945,406.1297,96.5206,408.068,101.835,402.7536,103.7733,412.601,103.945" style="stroke: #A80036; stroke-width: 1.0;"/><!--link ConversationConfig to RongExtensionConfig--><path d="M449.25,140.241 C449.25,155.4791 449.25,177.8069 449.25,194.4576 " fill="none" id="ConversationConfig-RongExtensionConfig" style="stroke: #A80036; stroke-width: 1.0;"/><polygon fill="#A80036" points="449.25,199.8683,453.25,190.8683,449.25,194.8683,445.25,190.8683,449.25,199.8683" style="stroke: #A80036; stroke-width: 1.0;"/><!--
@startuml
[RongConfigCenter] - -> [FeatureConfig]
[RongConfigCenter] - -> [ConversationListConfig]
[RongConfigCenter] - -> [ConversationConfig]
[ConversationConfig] - -> [RongExtensionConfig]
@enduml

PlantUML version 1.2019.06(Fri May 24 17:10:25 UTC 2019)
(GPL source distribution)
Java Runtime: Java(TM) SE Runtime Environment
JVM: Java HotSpot(TM) 64-Bit Server VM
Java Version: 1.8.0_191-b12
Operating System: Linux
OS Version: 3.13.0-48-generic
Default Encoding: UTF-8
Language: en
Country: US
--></g></svg>