<?xml version="1.0" encoding="UTF-8" standalone="no"?><svg xmlns="http://www.w3.org/2000/svg" xmlns:xlink="http://www.w3.org/1999/xlink" contentScriptType="application/ecmascript" contentStyleType="text/css" height="707px" preserveAspectRatio="none" style="width:1362px;height:707px;" version="1.1" viewBox="0 0 1362 707" width="1362px" zoomAndPan="magnify"><defs><filter height="300%" id="f19ik15jtzabbx" width="300%" x="-1" y="-1"><feGaussianBlur result="blurOut" stdDeviation="2.0"/><feColorMatrix in="blurOut" result="blurOut2" type="matrix" values="0 0 0 0 0 0 0 0 0 0 0 0 0 0 0 0 0 0 .4 0"/><feOffset dx="4.0" dy="4.0" in="blurOut2" result="blurOut3"/><feBlend in="SourceGraphic" in2="blurOut3" mode="normal"/></filter></defs><g><!--cluster View 层--><polygon fill="#FFFFFF" filter="url(#f19ik15jtzabbx)" points="22,24,87,24,94,46.2969,1136,46.2969,1136,304,22,304,22,24" style="stroke: #000000; stroke-width: 1.5;"/><line style="stroke: #000000; stroke-width: 1.5;" x1="22" x2="94" y1="46.2969" y2="46.2969"/><text fill="#000000" font-family="sans-serif" font-size="14" font-weight="bold" lengthAdjust="spacingAndGlyphs" textLength="59" x="26" y="38.9951">View 层</text><!--cluster 数据仓库--><path d="M423,410 C423,400 782.5,400 782.5,400 C782.5,400 1142,400 1142,410 L1142,685 C1142,695 782.5,695 782.5,695 C782.5,695 423,695 423,685 L423,410 " fill="#FFFFFF" filter="url(#f19ik15jtzabbx)" style="stroke: #000000; stroke-width: 1.5;"/><path d="M423,410 C423,420 782.5,420 782.5,420 C782.5,420 1142,420 1142,410 " fill="none" style="stroke: #000000; stroke-width: 1.5;"/><text fill="#000000" font-family="sans-serif" font-size="14" font-weight="bold" lengthAdjust="spacingAndGlyphs" textLength="60" x="752.5" y="434.9951">数据仓库</text><!--entity RongExtension--><rect fill="#FEFECE" filter="url(#f19ik15jtzabbx)" height="36.2969" style="stroke: #A80036; stroke-width: 1.5;" width="125" x="594.75" y="60"/><rect fill="#FEFECE" height="5" style="stroke: #A80036; stroke-width: 1.5;" width="10" x="589.75" y="65"/><rect fill="#FEFECE" height="5" style="stroke: #A80036; stroke-width: 1.5;" width="10" x="589.75" y="86.2969"/><text fill="#000000" font-family="sans-serif" font-size="14" lengthAdjust="spacingAndGlyphs" textLength="105" x="604.75" y="82.9951">RongExtension</text><!--entity InputPanelContainer--><rect fill="#FEFECE" filter="url(#f19ik15jtzabbx)" height="36.2969" style="stroke: #A80036; stroke-width: 1.5;" width="160" x="162" y="156"/><rect fill="#FEFECE" height="5" style="stroke: #A80036; stroke-width: 1.5;" width="10" x="157" y="161"/><rect fill="#FEFECE" height="5" style="stroke: #A80036; stroke-width: 1.5;" width="10" x="157" y="182.2969"/><text fill="#000000" font-family="sans-serif" font-size="14" lengthAdjust="spacingAndGlyphs" textLength="140" x="172" y="178.9951">InputPanelContainer</text><!--entity BoardContainer--><rect fill="#FEFECE" filter="url(#f19ik15jtzabbx)" height="36.2969" style="stroke: #A80036; stroke-width: 1.5;" width="128" x="503" y="156"/><rect fill="#FEFECE" height="5" style="stroke: #A80036; stroke-width: 1.5;" width="10" x="498" y="161"/><rect fill="#FEFECE" height="5" style="stroke: #A80036; stroke-width: 1.5;" width="10" x="498" y="182.2969"/><text fill="#000000" font-family="sans-serif" font-size="14" lengthAdjust="spacingAndGlyphs" textLength="108" x="513" y="178.9951">BoardContainer</text><!--entity AttatchInfoContainer--><rect fill="#FEFECE" filter="url(#f19ik15jtzabbx)" height="36.2969" style="stroke: #A80036; stroke-width: 1.5;" width="161" x="732.75" y="156"/><rect fill="#FEFECE" height="5" style="stroke: #A80036; stroke-width: 1.5;" width="10" x="727.75" y="161"/><rect fill="#FEFECE" height="5" style="stroke: #A80036; stroke-width: 1.5;" width="10" x="727.75" y="182.2969"/><text fill="#000000" font-family="sans-serif" font-size="14" lengthAdjust="spacingAndGlyphs" textLength="141" x="742.75" y="178.9951">AttatchInfoContainer</text><!--entity InputPanel--><rect fill="#FEFECE" filter="url(#f19ik15jtzabbx)" height="36.2969" style="stroke: #A80036; stroke-width: 1.5;" width="93" x="37.75" y="252"/><rect fill="#FEFECE" height="5" style="stroke: #A80036; stroke-width: 1.5;" width="10" x="32.75" y="257"/><rect fill="#FEFECE" height="5" style="stroke: #A80036; stroke-width: 1.5;" width="10" x="32.75" y="278.2969"/><text fill="#000000" font-family="sans-serif" font-size="14" lengthAdjust="spacingAndGlyphs" textLength="73" x="47.75" y="274.9951">InputPanel</text><!--entity DestructInputPanel--><rect fill="#FEFECE" filter="url(#f19ik15jtzabbx)" height="36.2969" style="stroke: #A80036; stroke-width: 1.5;" width="153" x="165.75" y="252"/><rect fill="#FEFECE" height="5" style="stroke: #A80036; stroke-width: 1.5;" width="10" x="160.75" y="257"/><rect fill="#FEFECE" height="5" style="stroke: #A80036; stroke-width: 1.5;" width="10" x="160.75" y="278.2969"/><text fill="#000000" font-family="sans-serif" font-size="14" lengthAdjust="spacingAndGlyphs" textLength="133" x="175.75" y="274.9951">DestructInputPanel</text><!--entity EmoticonBoard--><rect fill="#FEFECE" filter="url(#f19ik15jtzabbx)" height="36.2969" style="stroke: #A80036; stroke-width: 1.5;" width="126" x="354" y="252"/><rect fill="#FEFECE" height="5" style="stroke: #A80036; stroke-width: 1.5;" width="10" x="349" y="257"/><rect fill="#FEFECE" height="5" style="stroke: #A80036; stroke-width: 1.5;" width="10" x="349" y="278.2969"/><text fill="#000000" font-family="sans-serif" font-size="14" lengthAdjust="spacingAndGlyphs" textLength="106" x="364" y="274.9951">EmoticonBoard</text><!--entity PluginBoard--><rect fill="#FEFECE" filter="url(#f19ik15jtzabbx)" height="36.2969" style="stroke: #A80036; stroke-width: 1.5;" width="103" x="515.75" y="252"/><rect fill="#FEFECE" height="5" style="stroke: #A80036; stroke-width: 1.5;" width="10" x="510.75" y="257"/><rect fill="#FEFECE" height="5" style="stroke: #A80036; stroke-width: 1.5;" width="10" x="510.75" y="278.2969"/><text fill="#000000" font-family="sans-serif" font-size="14" lengthAdjust="spacingAndGlyphs" textLength="83" x="525.75" y="274.9951">PluginBoard</text><!--entity MoreInputPanel--><rect fill="#FEFECE" filter="url(#f19ik15jtzabbx)" height="36.2969" style="stroke: #A80036; stroke-width: 1.5;" width="128" x="654" y="252"/><rect fill="#FEFECE" height="5" style="stroke: #A80036; stroke-width: 1.5;" width="10" x="649" y="257"/><rect fill="#FEFECE" height="5" style="stroke: #A80036; stroke-width: 1.5;" width="10" x="649" y="278.2969"/><text fill="#000000" font-family="sans-serif" font-size="14" lengthAdjust="spacingAndGlyphs" textLength="108" x="664" y="274.9951">MoreInputPanel</text><!--entity ReferenceView--><rect fill="#FEFECE" filter="url(#f19ik15jtzabbx)" height="36.2969" style="stroke: #A80036; stroke-width: 1.5;" width="124" x="817.5" y="252"/><rect fill="#FEFECE" height="5" style="stroke: #A80036; stroke-width: 1.5;" width="10" x="812.5" y="257"/><rect fill="#FEFECE" height="5" style="stroke: #A80036; stroke-width: 1.5;" width="10" x="812.5" y="278.2969"/><text fill="#000000" font-family="sans-serif" font-size="14" lengthAdjust="spacingAndGlyphs" textLength="104" x="827.5" y="274.9951">ReferenceView</text><!--entity QuickReplyButton--><rect fill="#FEFECE" filter="url(#f19ik15jtzabbx)" height="36.2969" style="stroke: #A80036; stroke-width: 1.5;" width="144" x="976" y="252"/><rect fill="#FEFECE" height="5" style="stroke: #A80036; stroke-width: 1.5;" width="10" x="971" y="257"/><rect fill="#FEFECE" height="5" style="stroke: #A80036; stroke-width: 1.5;" width="10" x="971" y="278.2969"/><text fill="#000000" font-family="sans-serif" font-size="14" lengthAdjust="spacingAndGlyphs" textLength="124" x="986" y="274.9951">QuickReplyButton</text><!--entity IExtensionModule--><rect fill="#FEFECE" filter="url(#f19ik15jtzabbx)" height="36.2969" style="stroke: #A80036; stroke-width: 1.5;" width="142" x="683" y="451"/><rect fill="#FEFECE" height="5" style="stroke: #A80036; stroke-width: 1.5;" width="10" x="678" y="456"/><rect fill="#FEFECE" height="5" style="stroke: #A80036; stroke-width: 1.5;" width="10" x="678" y="477.2969"/><text fill="#000000" font-family="sans-serif" font-size="14" lengthAdjust="spacingAndGlyphs" textLength="122" x="693" y="473.9951">IExtensionModule</text><!--entity SigntExtensionModule--><rect fill="#FEFECE" filter="url(#f19ik15jtzabbx)" height="36.2969" style="stroke: #A80036; stroke-width: 1.5;" width="174" x="656" y="547"/><rect fill="#FEFECE" height="5" style="stroke: #A80036; stroke-width: 1.5;" width="10" x="651" y="552"/><rect fill="#FEFECE" height="5" style="stroke: #A80036; stroke-width: 1.5;" width="10" x="651" y="573.2969"/><text fill="#000000" font-family="sans-serif" font-size="14" lengthAdjust="spacingAndGlyphs" textLength="154" x="666" y="569.9951">SigntExtensionModule</text><!--entity ForwardExtensionModule--><rect fill="#FEFECE" filter="url(#f19ik15jtzabbx)" height="36.2969" style="stroke: #A80036; stroke-width: 1.5;" width="194" x="865.5" y="547"/><rect fill="#FEFECE" height="5" style="stroke: #A80036; stroke-width: 1.5;" width="10" x="860.5" y="552"/><rect fill="#FEFECE" height="5" style="stroke: #A80036; stroke-width: 1.5;" width="10" x="860.5" y="573.2969"/><text fill="#000000" font-family="sans-serif" font-size="14" lengthAdjust="spacingAndGlyphs" textLength="174" x="875.5" y="569.9951">ForwardExtensionModule</text><!--entity ...--><rect fill="#FEFECE" filter="url(#f19ik15jtzabbx)" height="36.2969" style="stroke: #A80036; stroke-width: 1.5;" width="32" x="1094" y="547"/><rect fill="#FEFECE" height="5" style="stroke: #A80036; stroke-width: 1.5;" width="10" x="1089" y="552"/><rect fill="#FEFECE" height="5" style="stroke: #A80036; stroke-width: 1.5;" width="10" x="1089" y="573.2969"/><text fill="#000000" font-family="sans-serif" font-size="14" lengthAdjust="spacingAndGlyphs" textLength="12" x="1104" y="569.9951">...</text><!--entity IExtensionConfig--><rect fill="#FEFECE" filter="url(#f19ik15jtzabbx)" height="36.2969" style="stroke: #A80036; stroke-width: 1.5;" width="135" x="493.75" y="451"/><rect fill="#FEFECE" height="5" style="stroke: #A80036; stroke-width: 1.5;" width="10" x="488.75" y="456"/><rect fill="#FEFECE" height="5" style="stroke: #A80036; stroke-width: 1.5;" width="10" x="488.75" y="477.2969"/><text fill="#000000" font-family="sans-serif" font-size="14" lengthAdjust="spacingAndGlyphs" textLength="115" x="503.75" y="473.9951">IExtensionConfig</text><!--entity DefaultExtensionConfig--><rect fill="#FEFECE" filter="url(#f19ik15jtzabbx)" height="36.2969" style="stroke: #A80036; stroke-width: 1.5;" width="181" x="439.75" y="547"/><rect fill="#FEFECE" height="5" style="stroke: #A80036; stroke-width: 1.5;" width="10" x="434.75" y="552"/><rect fill="#FEFECE" height="5" style="stroke: #A80036; stroke-width: 1.5;" width="10" x="434.75" y="573.2969"/><text fill="#000000" font-family="sans-serif" font-size="14" lengthAdjust="spacingAndGlyphs" textLength="161" x="449.75" y="569.9951">DefaultExtensionConfig</text><!--entity CustomExtensionConfig--><rect fill="#FEFECE" filter="url(#f19ik15jtzabbx)" height="36.2969" style="stroke: #A80036; stroke-width: 1.5;" width="186" x="439.5" y="643"/><rect fill="#FEFECE" height="5" style="stroke: #A80036; stroke-width: 1.5;" width="10" x="434.5" y="648"/><rect fill="#FEFECE" height="5" style="stroke: #A80036; stroke-width: 1.5;" width="10" x="434.5" y="669.2969"/><text fill="#000000" font-family="sans-serif" font-size="14" lengthAdjust="spacingAndGlyphs" textLength="166" x="449.5" y="665.9951">CustomExtensionConfig</text><!--entity RongExtensionManager--><rect fill="#FEFECE" filter="url(#f19ik15jtzabbx)" height="36.2969" style="stroke: #A80036; stroke-width: 1.5;" width="185" x="474.75" y="348"/><rect fill="#FEFECE" height="5" style="stroke: #A80036; stroke-width: 1.5;" width="10" x="469.75" y="353"/><rect fill="#FEFECE" height="5" style="stroke: #A80036; stroke-width: 1.5;" width="10" x="469.75" y="374.2969"/><text fill="#000000" font-family="sans-serif" font-size="14" lengthAdjust="spacingAndGlyphs" textLength="165" x="484.75" y="370.9951">RongExtensionManager</text><!--entity RongExtensionViewModel--><rect fill="#FEFECE" filter="url(#f19ik15jtzabbx)" height="36.2969" style="stroke: #A80036; stroke-width: 1.5;" width="199" x="1152.75" y="156"/><rect fill="#FEFECE" height="5" style="stroke: #A80036; stroke-width: 1.5;" width="10" x="1147.75" y="161"/><rect fill="#FEFECE" height="5" style="stroke: #A80036; stroke-width: 1.5;" width="10" x="1147.75" y="182.2969"/><text fill="#000000" font-family="sans-serif" font-size="14" lengthAdjust="spacingAndGlyphs" textLength="179" x="1162.75" y="178.9951">RongExtensionViewModel</text><!--link RongExtension to InputPanelContainer--><path d="M581.342,96.137 C506.275,113.14 391.911,139.044 317.056,155.999 " fill="none" id="RongExtension-InputPanelContainer" style="stroke: #A80036; stroke-width: 1.0;"/><polygon fill="#A80036" points="594.421,93.175,587.6857,90.5991,582.7174,95.8256,589.4527,98.4015,594.421,93.175" style="stroke: #A80036; stroke-width: 1.0;"/><!--link RongExtension to BoardContainer--><path d="M631.46,105.675 C616.03,121.791 596.821,141.854 583.403,155.868 " fill="none" id="RongExtension-BoardContainer" style="stroke: #A80036; stroke-width: 1.0;"/><polygon fill="#A80036" points="640.493,96.241,633.4543,97.8082,632.1937,104.9082,639.2324,103.3411,640.493,96.241" style="stroke: #A80036; stroke-width: 1.0;"/><!--link RongExtension to AttatchInfoContainer--><path d="M696.459,102.776 C723.968,119.352 760.019,141.075 784.697,155.945 " fill="none" id="RongExtension-AttatchInfoContainer" style="stroke: #A80036; stroke-width: 1.0;"/><polygon fill="#A80036" points="685.25,96.023,688.3243,102.5459,695.5279,102.2169,692.4536,95.694,685.25,96.023" style="stroke: #A80036; stroke-width: 1.0;"/><!--link InputPanelContainer to InputPanel--><path d="M202.035,198.776 C174.174,215.352 137.66,237.075 112.666,251.945 " fill="none" id="InputPanelContainer-InputPanel" style="stroke: #A80036; stroke-width: 1.0;"/><polygon fill="#FFFFFF" points="213.387,192.023,206.1854,191.6524,203.0735,198.1575,210.2751,198.5281,213.387,192.023" style="stroke: #A80036; stroke-width: 1.0;"/><!--link InputPanelContainer to DestructInputPanel--><path d="M242,205.387 C242,220.785 242,238.912 242,251.868 " fill="none" id="InputPanelContainer-DestructInputPanel" style="stroke: #A80036; stroke-width: 1.0;"/><polygon fill="#FFFFFF" points="242,192.241,238,198.241,242,204.241,246,198.241,242,192.241" style="stroke: #A80036; stroke-width: 1.0;"/><!--link BoardContainer to EmoticonBoard--><path d="M528.704,198.999 C502.299,215.546 467.838,237.142 444.215,251.945 " fill="none" id="BoardContainer-EmoticonBoard" style="stroke: #A80036; stroke-width: 1.0;"/><polygon fill="#FFFFFF" points="539.836,192.023,532.6278,191.8202,529.6681,198.3959,536.8764,198.5987,539.836,192.023" style="stroke: #A80036; stroke-width: 1.0;"/><!--link BoardContainer to PluginBoard--><path d="M567,205.387 C567,220.785 567,238.912 567,251.868 " fill="none" id="BoardContainer-PluginBoard" style="stroke: #A80036; stroke-width: 1.0;"/><polygon fill="#FFFFFF" points="567,192.241,563,198.241,567,204.241,571,198.241,567,192.241" style="stroke: #A80036; stroke-width: 1.0;"/><!--link AttatchInfoContainer to MoreInputPanel--><path d="M786.041,201.675 C769.754,217.791 749.477,237.854 735.314,251.868 " fill="none" id="AttatchInfoContainer-MoreInputPanel" style="stroke: #A80036; stroke-width: 1.0;"/><polygon fill="#FFFFFF" points="795.576,192.241,788.4976,193.6178,787.046,200.6813,794.1244,199.3045,795.576,192.241" style="stroke: #A80036; stroke-width: 1.0;"/><!--link AttatchInfoContainer to ReferenceView--><path d="M832.697,203.053 C843.838,218.921 857.41,238.251 866.971,251.868 " fill="none" id="AttatchInfoContainer-ReferenceView" style="stroke: #A80036; stroke-width: 1.0;"/><polygon fill="#FFFFFF" points="825.105,192.241,825.2793,199.45,832.0008,202.0618,831.8265,194.8528,825.105,192.241" style="stroke: #A80036; stroke-width: 1.0;"/><!--link AttatchInfoContainer to QuickReplyButton--><path d="M867.781,196.912 C909.734,213.694 966.778,236.511 1005.363,251.945 " fill="none" id="AttatchInfoContainer-QuickReplyButton" style="stroke: #A80036; stroke-width: 1.0;"/><polygon fill="#FFFFFF" points="855.557,192.023,859.6421,197.9654,866.6985,196.4801,862.6135,190.5377,855.557,192.023" style="stroke: #A80036; stroke-width: 1.0;"/><!--link EmoticonBoard to RongExtensionManager--><path d="M444.164,288.023 C469.888,304.143 508.499,328.339 535.547,345.29 " fill="none" id="EmoticonBoard-RongExtensionManager" style="stroke: #A80036; stroke-width: 1.0;"/><polygon fill="#A80036" points="539.785,347.945,534.2834,339.776,535.5484,345.2896,530.0348,346.5546,539.785,347.945" style="stroke: #A80036; stroke-width: 1.0;"/><!--link PluginBoard to RongExtensionManager--><path d="M567,288.241 C567,303.479 567,325.807 567,342.458 " fill="none" id="PluginBoard-RongExtensionManager" style="stroke: #A80036; stroke-width: 1.0;"/><polygon fill="#A80036" points="567,347.868,571,338.868,567,342.868,563,338.868,567,347.868" style="stroke: #A80036; stroke-width: 1.0;"/><!--link RongExtension to RongExtensionViewModel--><path d="M724.488,89.662 C827.72,105.971 1025.66,137.243 1147.54,156.497 " fill="none" id="RongExtension-RongExtensionViewModel" style="stroke: #A80036; stroke-width: 1.0;"/><polygon fill="#A80036" points="1152.56,157.291,1144.3003,151.9266,1147.6221,156.5054,1143.0433,159.8272,1152.56,157.291" style="stroke: #A80036; stroke-width: 1.0;"/><polygon fill="#A80036" points="719.271,88.838,727.5368,94.1931,724.2098,89.618,728.7848,86.291,719.271,88.838" style="stroke: #A80036; stroke-width: 1.0;"/><!--link RongExtensionViewModel to RongExtensionManager--><path d="M1240.87,196.623 C1223.34,228.176 1186.05,285.91 1136,312 C1056.47,353.459 805.465,362.793 664.862,364.699 " fill="none" id="RongExtensionViewModel-RongExtensionManager" style="stroke: #A80036; stroke-width: 1.0;"/><polygon fill="#A80036" points="659.493,364.769,668.5448,368.6504,664.4926,364.7033,668.4397,360.6511,659.493,364.769" style="stroke: #A80036; stroke-width: 1.0;"/><polygon fill="#A80036" points="1243.32,192.165,1235.4876,198.136,1240.9175,196.55,1242.5036,201.98,1243.32,192.165" style="stroke: #A80036; stroke-width: 1.0;"/><!--link RongExtensionManager to IExtensionModule--><path d="M638.535,388.964 C640.733,389.945 642.893,390.957 645,392 C678.082,408.371 712.39,433.966 733.468,450.86 " fill="none" id="RongExtensionManager-IExtensionModule" style="stroke: #A80036; stroke-width: 1.0;"/><polygon fill="#A80036" points="626.514,384.012,630.5376,389.9962,637.609,388.5837,633.5854,382.5995,626.514,384.012" style="stroke: #A80036; stroke-width: 1.0;"/><!--link IExtensionModule to SigntExtensionModule--><path d="M749.655,507.13 C748.049,520.858 746.304,535.763 745.005,546.868 " fill="none" id="IExtensionModule-SigntExtensionModule" style="stroke: #A80036; stroke-width: 1.0; stroke-dasharray: 7.0,7.0;"/><polygon fill="none" points="742.705,506.292,751.982,487.241,756.61,507.919,742.705,506.292" style="stroke: #A80036; stroke-width: 1.0;"/><!--link IExtensionModule to ForwardExtensionModule--><path d="M810.083,495.345 C846.279,511.703 892.387,532.54 924.262,546.945 " fill="none" id="IExtensionModule-ForwardExtensionModule" style="stroke: #A80036; stroke-width: 1.0; stroke-dasharray: 7.0,7.0;"/><polygon fill="none" points="807.01,501.638,791.667,487.023,812.775,488.88,807.01,501.638" style="stroke: #A80036; stroke-width: 1.0;"/><!--link IExtensionModule to ...--><path d="M844.92,486.335 C910.042,499.348 999.249,519.881 1075,547 C1081.36,549.277 1088.09,552.369 1093.93,555.292 " fill="none" id="IExtensionModule-..." style="stroke: #A80036; stroke-width: 1.0; stroke-dasharray: 7.0,7.0;"/><polygon fill="none" points="843.382,493.166,825.098,482.457,846.07,479.427,843.382,493.166" style="stroke: #A80036; stroke-width: 1.0;"/><!--link RongExtensionManager to IExtensionConfig--><path d="M565.21,397.137 C564.169,414.656 562.895,436.102 562.023,450.783 " fill="none" id="RongExtensionManager-IExtensionConfig" style="stroke: #A80036; stroke-width: 1.0;"/><polygon fill="#A80036" points="565.982,384.133,561.6336,389.8855,565.2712,396.1119,569.6196,390.3594,565.982,384.133" style="stroke: #A80036; stroke-width: 1.0;"/><!--link IExtensionConfig to DefaultExtensionConfig--><path d="M548.916,506.64 C544.345,520.503 539.356,535.63 535.65,546.868 " fill="none" id="IExtensionConfig-DefaultExtensionConfig" style="stroke: #A80036; stroke-width: 1.0; stroke-dasharray: 7.0,7.0;"/><polygon fill="none" points="542.402,504.042,555.314,487.241,555.698,508.427,542.402,504.042" style="stroke: #A80036; stroke-width: 1.0;"/><!--link DefaultExtensionConfig to CustomExtensionConfig--><path d="M530.8,603.621 C531.09,617.2125 531.402,631.8949 531.635,642.8683 " fill="none" id="DefaultExtensionConfig-CustomExtensionConfig" style="stroke: #A80036; stroke-width: 1.0;"/><polygon fill="none" points="523.794,603.385,530.367,583.241,537.791,603.088,523.794,603.385" style="stroke: #A80036; stroke-width: 1.0;"/><!--
@startuml
package "View 层" {
[RongExtension] *- - [InputPanelContainer]
[RongExtension] *- - [BoardContainer]
[RongExtension] *- - [AttatchInfoContainer]
[InputPanelContainer] o- - [InputPanel]
[InputPanelContainer] o- - [DestructInputPanel]
[BoardContainer] o- - [EmoticonBoard]
[BoardContainer] o- - [PluginBoard]
[AttatchInfoContainer] o- - [MoreInputPanel]
[AttatchInfoContainer] o- - [ReferenceView]
[AttatchInfoContainer] o- - [QuickReplyButton]
}

[EmoticonBoard] - -> [RongExtensionManager]
[PluginBoard] - -> [RongExtensionManager]

[RongExtension] <- -> [RongExtensionViewModel]
database "数据仓库" {
[RongExtensionViewModel] <- -> [RongExtensionManager]
[RongExtensionManager] *- - [IExtensionModule]
[IExtensionModule] <|.. [SigntExtensionModule]
[IExtensionModule] <|.. [ForwardExtensionModule]
[IExtensionModule] <|.. [...]

[RongExtensionManager] *- - [IExtensionConfig]
[IExtensionConfig] <|.. [DefaultExtensionConfig]
[DefaultExtensionConfig] <|- - [CustomExtensionConfig]
}
@enduml

PlantUML version 1.2019.06(Fri May 24 17:10:25 UTC 2019)
(GPL source distribution)
Java Runtime: Java(TM) SE Runtime Environment
JVM: Java HotSpot(TM) 64-Bit Server VM
Java Version: 1.8.0_191-b12
Operating System: Linux
OS Version: 3.13.0-48-generic
Default Encoding: UTF-8
Language: en
Country: US
--></g></svg>